<svg width="119" height="21" fill="none" xmlns="http://www.w3.org/2000/svg"><path d="M10.569 20.5C5.013 20.5.558 16.027.56 10.455.565 4.955 5.08.485 10.636.5c5.681.017 10.02 4.793 9.945 10.145-.074 5.328-4.434 9.846-10.012 9.855Zm-8.054-9.033c.344 3.277 2.904 6.45 6.788 7.065 1.304.206 2.589.1 3.843-.319a7.993 7.993 0 0 0 3.304-2.1h-.364c-1.755 0-3.512.028-5.267-.008-2.246-.045-3.91-1.09-4.955-3.076-.254-.482-.396-1.024-.599-1.562h-2.75ZM16.424 4.9c-1.911-2.103-5.285-3.19-8.522-2.07-3.419 1.181-5.218 4.32-5.366 6.715h2.78c.017-.057.034-.103.044-.15.574-2.69 2.803-4.493 5.559-4.494h5.504Zm2.213 4.647a7.311 7.311 0 0 0-.776-2.631c-.034-.068-.16-.124-.245-.124-2.244-.006-4.489-.007-6.733-.004-1.118.001-2.06.413-2.813 1.24a3.435 3.435 0 0 0-.81 1.519h11.377Zm0 1.921H7.27c.013.061.02.108.034.153.433 1.46 1.85 2.576 3.377 2.592 2.316.025 4.633.012 6.949.006.084 0 .21-.078.248-.154.4-.81.657-1.664.761-2.597Zm14.911 2.052c.274-1.05.532-2.033.787-3.017.454-1.75.91-3.502 1.356-5.255.048-.19.125-.253.323-.247.528.016 1.056.005 1.618.005-.021.103-.035.185-.056.265-.903 3.495-1.807 6.99-2.706 10.486-.046.183-.107.26-.314.255a49.772 49.772 0 0 0-2.045-.001c-.18.003-.245-.059-.288-.226-.641-2.497-1.289-4.992-1.935-7.487-.018-.067-.041-.133-.085-.274-.107.403-.198.738-.285 1.074-.577 2.224-1.156 4.447-1.725 6.672-.047.182-.114.244-.303.24a55.78 55.78 0 0 0-2.02.001c-.195.004-.278-.051-.328-.244-.833-3.249-1.673-6.495-2.512-9.743l-.263-1.017h.736c.313 0 .626.011.938-.005.175-.01.231.063.271.218.607 2.356 1.22 4.712 1.83 7.067l.317 1.213c.036-.1.06-.152.074-.208.7-2.688 1.402-5.375 2.095-8.065.045-.177.115-.227.29-.224.585.01 1.17.014 1.756-.002.201-.005.273.063.32.25.689 2.675 1.385 5.348 2.079 8.021.016.062.036.121.075.249Zm82.708-.804V5.073h1.822v10.879h-.56c-.353 0-.706-.01-1.058.004-.158.006-.245-.054-.332-.177-1.737-2.43-3.479-4.86-5.219-7.288-.054-.075-.11-.148-.2-.269v7.71h-1.823V5.063c.265 0 .534.002.802-.002.296-.003.593-.025.888-.01.087.005.194.092.251.171 1.504 2.095 3.003 4.194 4.503 6.292l.867 1.212.059-.009ZM50.613 5.073h5.267c1.585 0 2.929 1.02 3.323 2.52.394 1.5-.278 3.033-1.673 3.819-.02.011-.04.025-.095.06a6.14 6.14 0 0 1 1.48 2.018c.346.77.52 1.577.514 2.442h-1.873c-.057-1.476-.686-2.65-1.932-3.473-.952-.63-2.019-.703-3.136-.628v4.127h-1.875V5.073Zm1.877 4.856h.207c1.074 0 2.148.003 3.221 0a1.499 1.499 0 0 0 1.51-1.489c.006-.83-.667-1.492-1.522-1.494-1.065-.002-2.13 0-3.197 0h-.219v2.983Zm45.718 6.215c-3.099 0-5.64-2.533-5.64-5.62a5.647 5.647 0 0 1 5.654-5.655 5.631 5.631 0 0 1 5.639 5.64c.009 3.096-2.538 5.635-5.653 5.635Zm.015-1.833c2.092-.002 3.815-1.73 3.803-3.814a3.822 3.822 0 0 0-3.822-3.795 3.82 3.82 0 0 0-3.804 3.79c-.008 2.102 1.713 3.821 3.823 3.82Zm-54.685 1.833c-3.097-.002-5.635-2.54-5.63-5.628a5.646 5.646 0 0 1 5.659-5.647c3.11.001 5.633 2.53 5.633 5.65 0 3.098-2.546 5.628-5.662 5.625Zm.024-1.833c2.092-.002 3.816-1.731 3.803-3.816a3.821 3.821 0 0 0-3.825-3.793 3.809 3.809 0 0 0-3.801 3.79c-.009 2.101 1.713 3.821 3.823 3.82Zm26.392 1.654v-10.9c.034-.01.063-.027.093-.027 1.45.008 2.904-.035 4.351.04 2.42.123 4.584 2.207 4.886 4.615.3 2.398-.742 4.48-2.833 5.638a5.145 5.145 0 0 1-2.463.642c-1.298.015-2.597.004-3.896.003-.038 0-.077-.006-.139-.011Zm1.845-9.07v7.244c.308 0 .596.007.884-.002.607-.018 1.225.018 1.82-.079a3.616 3.616 0 0 0 3.003-3.844c-.115-1.73-1.588-3.216-3.38-3.322-.735-.043-1.474-.014-2.21-.016-.038 0-.076.012-.117.02Zm19.788 2.303c-.595 0-1.186.005-1.777-.007-.059 0-.14-.09-.17-.158-.664-1.498-2.044-2.373-3.685-2.33-2.17.057-3.91 2.114-3.608 4.263.25 1.781 1.535 3.064 3.33 3.325 1.596.232 3.226-.696 3.931-2.252.079-.174.164-.235.355-.23.536.014 1.073.005 1.612.005-.289 1.844-2.253 4.269-5.318 4.33-3.04.06-5.617-2.304-5.769-5.294-.156-3.077 2.126-5.728 5.154-5.966 3.269-.257 5.521 2.121 5.945 4.314Zm-22.996 4.91v1.83h-7.623V5.074h1.799v9.034h5.824Zm38.429 1.832h-1.801V5.08h1.801v10.86Z" fill="#fff"/></svg>