<svg width="105" height="21" fill="none" xmlns="http://www.w3.org/2000/svg"><path d="m102.578 4.538-3.133-1.795-3.173-1.82c-2.106-1.206-4.732.312-4.732 2.735v.41a.623.623 0 0 0 .314.542l1.474.845a.615.615 0 0 0 .92-.532v-.972a.623.623 0 0 1 .934-.543l2.901 1.665 2.896 1.658a.627.627 0 0 1 .314.54.623.623 0 0 1-.314.541l-2.897 1.66-2.9 1.664a.625.625 0 0 1-.936-.543v-.48c0-2.425-2.629-3.943-4.732-2.736l-3.173 1.82-3.134 1.794c-2.116 1.213-2.116 4.26 0 5.472l3.134 1.794 3.173 1.82c2.107 1.207 4.732-.311 4.732-2.736v-.409a.625.625 0 0 0-.314-.543l-1.474-.844a.613.613 0 0 0-.919.531v.969a.622.622 0 0 1-.623.625.625.625 0 0 1-.312-.082l-2.902-1.664-2.903-1.656a.624.624 0 0 1 0-1.081l2.896-1.66 2.901-1.662a.625.625 0 0 1 .936.543v.48c0 2.424 2.63 3.942 4.732 2.736l3.173-1.821 3.141-1.795c2.117-1.211 2.117-4.258 0-5.47Zm-20.58.599-7.344 15.141h-3.05l2.746-5.658-4.32-9.483h3.128l2.773 6.35 3.031-6.35h3.036ZM8.574 10.512c0-1.805-1.315-3.077-2.93-3.077-1.616 0-2.93 1.291-2.93 3.077 0 1.764 1.314 3.077 2.93 3.077 1.615 0 2.93-1.267 2.93-3.077Zm.022 5.377V14.49c-.798.968-1.983 1.57-3.405 1.57C2.241 16.06 0 13.695 0 10.512c0-3.16 2.326-5.569 5.258-5.569a4.303 4.303 0 0 1 3.34 1.549V5.134h2.65V15.89H8.596Zm15.521-2.387c-.927 0-1.185-.344-1.185-1.247V7.48h1.702V5.137h-1.702V2.512h-2.714v2.625H16.72v-1.07c0-.905.344-1.248 1.293-1.248h.596V.733h-1.307c-2.24 0-3.297.732-3.297 2.968v1.436h-1.508V7.48h1.508v8.408h2.715V7.481h3.497v5.269c0 2.193.84 3.14 3.038 3.14h1.4v-2.388h-.539Zm9.738-3.957c-.194-1.397-1.336-2.236-2.672-2.236-1.335 0-2.434.815-2.714 2.236h5.386Zm-5.408 1.678c.194 1.591 1.336 2.494 2.78 2.494 1.141 0 2.024-.537 2.538-1.398h2.779c-.646 2.28-2.693 3.742-5.386 3.742-3.253 0-5.536-2.28-5.536-5.527 0-3.247 2.415-5.587 5.604-5.587 3.21 0 5.537 2.366 5.537 5.591 0 .231-.021.462-.066.689l-8.25-.004Zm25.579-.71c0-1.742-1.314-3.077-2.93-3.077s-2.93 1.29-2.93 3.077c0 1.764 1.314 3.077 2.93 3.077s2.93-1.333 2.93-3.077Zm-8.531 9.765V5.138h2.65v1.396c.797-.989 1.982-1.587 3.403-1.587 2.909 0 5.193 2.387 5.193 5.548 0 3.162-2.327 5.57-5.259 5.57-1.36 0-2.478-.538-3.253-1.441v5.658l-2.734-.004Zm20.795-9.766c0-1.805-1.316-3.077-2.931-3.077-1.616 0-2.93 1.291-2.93 3.077 0 1.764 1.314 3.077 2.93 3.077s2.93-1.267 2.93-3.077Zm.02 5.377V14.49c-.797.968-1.982 1.57-3.404 1.57-2.95 0-5.192-2.366-5.192-5.549 0-3.16 2.328-5.569 5.259-5.569a4.3 4.3 0 0 1 3.34 1.549V5.134h2.65V15.89H66.31ZM40.72 6.19s.675-1.243 2.327-1.243c.401-.007.8.076 1.164.242v2.744s-.997-.614-1.913-.49-1.494.962-1.491 2.081v6.366H38.07V5.137h2.65V6.19Z" fill="#fff"/></svg>