<svg width="27" height="27" fill="none" xmlns="http://www.w3.org/2000/svg"><path fill-rule="evenodd" clip-rule="evenodd" d="M26.651 13.5c0 7.18-5.82 13-13 13s-13-5.82-13-13 5.82-13 13-13 13 5.82 13 13Zm-9.593-3.042h2.22v.92h-3.36v-.155c0-.57.113-1.04.341-1.415.23-.374.624-.704 1.194-.993l.262-.127c.463-.234.583-.435.583-.676 0-.289-.247-.497-.65-.497-.476 0-.837.247-1.087.751l-.642-.644c.14-.302.366-.544.67-.731a1.84 1.84 0 0 1 1.012-.289c.463 0 .858.123 1.193.37.336.247.505.59.505 1.024 0 .692-.39 1.115-1.12 1.49l-.41.208c-.436.22-.652.416-.711.764Zm1.924 1.981h-3.677l-1.838 3.183h3.676l1.838 3.185 1.839-3.185-1.838-3.183ZM9.537 13.5a4.252 4.252 0 0 0 4.246 4.246 4.232 4.232 0 0 0 2.766-1.03l1.607 2.788a7.428 7.428 0 0 1-11.8-6.004 7.428 7.428 0 0 1 8.881-7.286l-1.453 3.04A4.252 4.252 0 0 0 9.538 13.5Z" fill="#686F7D"/></svg>