<svg width="63" height="15" fill="none" xmlns="http://www.w3.org/2000/svg"><path d="M62.562 6.62c0-3.593-2.508-6.12-6.024-6.12-4.476 0-7.476 3.246-7.476 7.88 0 3.617 2.532 6.12 6.108 6.12 3.252 0 5.676-1.569 6.672-4.072H58.23c-.48.779-1.5 1.27-2.748 1.27-1.92 0-3.12-1.27-3.228-3.066h10.104c.132-.683.204-1.27.204-2.012ZM52.53 6.2c.324-1.652 1.932-2.97 3.876-2.97 1.68 0 2.952 1.222 2.952 2.97H52.53Zm-13.175 7.977.648-3.45c1.98.396 2.28-.718 2.795-3.4l.252-1.33C43.77 2.25 45.222.38 49.374.883l-.648 3.45c-1.98-.396-2.328 1.101-2.772 3.425l-.252 1.33c-.72 3.796-2.22 5.592-6.347 5.089Zm-4.848.012L36.955.824h3.228l-2.436 13.365h-3.24ZM16.016.824h3.132l1.02 9.664L24.272.824h3.107l1.092 9.76 3.96-9.76h3.12l-5.676 13.365h-3.552L25.172 4.99l-3.924 9.198h-3.432L16.016.824ZM4.317 4.369.597 7.913H6.92l.66-1.544H4.377l2.004-2-1.164-2h5.435l-5.015 11.82H7.52L13.196.824H2.23l2.088 3.545Z" fill="#fff"/></svg>