<svg width="64" height="15" fill="none" xmlns="http://www.w3.org/2000/svg"><path opacity=".8" d="m.651 5.648 5.806.001h3.53V2.152L.652 5.648Z" fill="#686F7D"/><path d="M9.988 2.152V14.5l4.41-14-4.41 1.652Z" fill="#686F7D"/><path opacity=".6" d="m9.988 5.65-3.53-.001 3.53 8.851V5.65Z" fill="#686F7D"/><path d="M.651 5.648 7.363 7.92l-.906-2.271-5.806-.001Zm61.406 3.129h-.18a7.925 7.925 0 0 0-.817.09c-.21.034-.397.094-.56.18a1.175 1.175 0 0 0-.398.334.857.857 0 0 0-.155.528c0 .24.07.443.206.61.137.168.369.252.695.252a1.63 1.63 0 0 0 .85-.232.997.997 0 0 0 .263-.225.374.374 0 0 0 .096-.225V8.777Zm1.647 1.492c0 .677.099 1.17.296 1.48a2.21 2.21 0 0 1-.85.167c-.308 0-.542-.06-.7-.18a.808.808 0 0 1-.303-.515 2.319 2.319 0 0 1-.746.502c-.309.137-.686.206-1.132.206a2.6 2.6 0 0 1-.695-.097 1.821 1.821 0 0 1-.63-.314 1.632 1.632 0 0 1-.463-.583c-.12-.244-.18-.541-.18-.892 0-.436.105-.79.315-1.064.21-.274.474-.49.791-.648.317-.158.66-.267 1.03-.327a9.817 9.817 0 0 1 1.318-.128h.277v-.234c0-.33-.088-.564-.264-.703-.176-.139-.461-.208-.856-.208-.368 0-.697.06-.984.18a8.01 8.01 0 0 0-.842.412 1.886 1.886 0 0 1-.29-.483c-.073-.175-.11-.306-.11-.392 0-.12.067-.236.2-.347.133-.112.315-.213.547-.303a4.47 4.47 0 0 1 .797-.218c.3-.056.618-.084.952-.084.464 0 .856.047 1.178.141.321.095.583.24.784.438.202.197.345.444.431.74.086.295.13.64.13 1.035v2.419Zm-8.35-3.994c.052-.077.12-.162.206-.256.086-.093.191-.178.315-.255.125-.077.262-.14.412-.192.15-.05.31-.076.483-.076.102 0 .212.009.328.025.115.017.223.05.321.096.099.047.178.11.238.191s.09.181.09.3c0 .187-.047.402-.141.645-.095.243-.19.45-.283.621a1.91 1.91 0 0 0-.438-.276A1.269 1.269 0 0 0 56.371 7a.99.99 0 0 0-.67.232.708.708 0 0 0-.27.555v4.165h-1.749V5.676a3.02 3.02 0 0 1 .335-.045c.068-.004.15-.007.244-.007.274 0 .512.054.714.16.201.106.328.27.38.49Zm-4.974 0c.051-.077.12-.162.206-.256.086-.093.19-.178.315-.255.124-.077.262-.14.412-.192.15-.05.31-.076.482-.076.103 0 .212.009.328.025.116.017.223.05.322.096.098.047.178.11.238.191s.09.181.09.3c0 .187-.047.402-.142.645-.094.243-.188.45-.283.621a1.912 1.912 0 0 0-.437-.276A1.268 1.268 0 0 0 51.396 7a.99.99 0 0 0-.669.232.71.71 0 0 0-.27.555v4.165h-1.75V5.676a3.065 3.065 0 0 1 .335-.045c.069-.004.15-.007.244-.007.275 0 .513.054.714.16.202.106.329.27.38.49Zm-4.627 1.781c0-.412-.08-.746-.24-1.003-.16-.258-.446-.386-.86-.386-.354 0-.636.122-.848.366-.211.245-.316.586-.316 1.023h2.264Zm-.587 2.612a2.048 2.048 0 0 0 1.007-.245c.13-.068.241-.143.336-.225.095-.081.18-.156.258-.225.103.128.211.294.323.495.112.202.168.367.168.496 0 .188-.107.36-.322.514-.18.137-.435.255-.765.354a4.09 4.09 0 0 1-1.164.148c-.404 0-.8-.051-1.19-.155a2.628 2.628 0 0 1-1.042-.54c-.305-.257-.552-.602-.74-1.036-.19-.432-.283-.98-.283-1.64 0-.54.084-1.005.25-1.396a2.8 2.8 0 0 1 .67-.97c.278-.258.593-.447.945-.567.352-.12.712-.18 1.08-.18.481 0 .888.075 1.223.225.334.15.607.352.817.605.21.253.362.542.457.868.094.326.141.67.141 1.03v.18c0 .068-.002.14-.006.218l-.013.225a1.361 1.361 0 0 1-.02.174h-3.795c.035.472.181.864.44 1.177.257.313.666.47 1.225.47Zm-7.84.167a2.232 2.232 0 0 1-.116-.54 6.187 6.187 0 0 1-.026-.567V3.76l.193-.026a2.69 2.69 0 0 1 .81.013.965.965 0 0 1 .374.155.85.85 0 0 1 .27.315c.069.133.103.306.103.52v.914h1.801v1.3h-1.801v2.743c0 .598.244.897.733.897.12 0 .234-.019.341-.057.107-.039.204-.082.29-.13a1.572 1.572 0 0 0 .36-.263c.129.19.227.352.296.49a.88.88 0 0 1 .103.389.515.515 0 0 1-.136.331c-.09.109-.216.208-.379.3a2.42 2.42 0 0 1-.592.22 3.211 3.211 0 0 1-.759.084c-.532 0-.946-.103-1.241-.309a1.64 1.64 0 0 1-.624-.81Zm-3.177-2.213c0-.257-.022-.497-.064-.72a1.755 1.755 0 0 0-.211-.58 1.027 1.027 0 0 0-.397-.379 1.26 1.26 0 0 0-.608-.135c-.358 0-.607.069-.748.206-.14.137-.211.287-.211.45v2.728c.068.068.19.15.364.244.175.094.378.142.608.142.435 0 .755-.172.96-.515.204-.343.307-.823.307-1.441Zm-2.316-2.38c.137-.163.35-.328.641-.495.29-.168.658-.251 1.103-.251.316 0 .618.054.904.16.286.108.541.282.763.522.223.24.4.557.533.952.132.394.198.879.198 1.453 0 .67-.077 1.22-.23 1.654-.155.433-.353.776-.597 1.029-.243.253-.515.43-.814.534-.3.103-.599.154-.898.154-.248 0-.464-.028-.648-.083a2.573 2.573 0 0 1-.468-.187 1.24 1.24 0 0 1-.423-.348V14.5h-1.75V5.676a3.06 3.06 0 0 1 .338-.045c.069-.004.15-.007.246-.007.285 0 .527.048.726.142a.666.666 0 0 1 .376.476Zm-4.85 2.535h-.18a7.933 7.933 0 0 0-.817.09c-.21.034-.397.094-.56.18a1.177 1.177 0 0 0-.399.334.856.856 0 0 0-.154.528c0 .24.069.443.206.61.137.168.368.252.694.252a1.628 1.628 0 0 0 .85-.232c.11-.069.199-.143.263-.225a.374.374 0 0 0 .097-.225V8.777Zm1.646 1.492c0 .677.1 1.17.296 1.48a2.206 2.206 0 0 1-.85.167c-.307 0-.541-.06-.7-.18a.808.808 0 0 1-.302-.515c-.19.197-.438.364-.746.502-.31.137-.687.206-1.132.206-.232 0-.464-.033-.695-.097a1.824 1.824 0 0 1-.63-.314 1.63 1.63 0 0 1-.464-.583c-.12-.244-.18-.541-.18-.892 0-.436.105-.79.315-1.064.21-.274.474-.49.791-.648.318-.158.66-.267 1.03-.327a9.816 9.816 0 0 1 1.319-.128h.276v-.234c0-.33-.088-.564-.264-.703-.176-.139-.46-.208-.855-.208-.37 0-.697.06-.984.18-.288.12-.569.257-.843.412a1.877 1.877 0 0 1-.29-.483c-.072-.175-.109-.306-.109-.392 0-.12.067-.236.2-.347a1.96 1.96 0 0 1 .546-.303c.232-.09.498-.163.798-.218.3-.056.617-.084.952-.084.463 0 .856.047 1.177.141.322.095.583.24.785.438.201.197.345.444.431.74.086.295.128.64.128 1.035v2.419Zm-6.59.98a1.627 1.627 0 0 1-.256.192 2.693 2.693 0 0 1-.466.23 4.081 4.081 0 0 1-.704.199 4.921 4.921 0 0 1-.952.083c-.69 0-1.288-.111-1.79-.333a3.334 3.334 0 0 1-1.247-.927 3.801 3.801 0 0 1-.723-1.406 6.528 6.528 0 0 1-.23-1.784c0-.648.083-1.247.25-1.797.165-.55.415-1.025.747-1.426.333-.4.748-.714 1.247-.94.499-.226 1.085-.339 1.759-.339.332 0 .633.03.901.09.269.06.503.13.704.21a2.725 2.725 0 0 1 .799.48c.076.069.142.15.198.243a.594.594 0 0 1 .083.307.85.85 0 0 1-.192.512c-.128.17-.268.328-.422.473a5.204 5.204 0 0 0-.345-.313c-.128-.107-.27-.2-.428-.282a2.847 2.847 0 0 0-.538-.204 2.524 2.524 0 0 0-.671-.084c-.435 0-.8.088-1.093.263a2.086 2.086 0 0 0-.71.684c-.18.281-.307.603-.384.965a5.605 5.605 0 0 0 0 2.257c.077.367.209.691.397.972.187.281.432.508.735.678.303.17.68.256 1.132.256.238 0 .458-.03.658-.09a2.628 2.628 0 0 0 .934-.486c.115-.093.21-.174.288-.243l.179.218c.068.086.133.175.191.268.06.094.111.188.154.282a.625.625 0 0 1 .064.255.57.57 0 0 1-.064.282 1.222 1.222 0 0 1-.205.255Z" fill="#686F7D"/></svg>