<svg width="71" height="17" fill="none" xmlns="http://www.w3.org/2000/svg"><path d="M.166 8.372v7.872h3.078V9.831l1.18.039 1.18.038 1.808 3.162 1.796 3.161 1.77.013c.962 0 1.757-.026 1.757-.064 0-.038-.821-1.498-1.809-3.238-1-1.741-1.834-3.2-1.86-3.239-.025-.05.283-.243.693-.448.937-.46 1.886-1.344 2.296-2.137.564-1.127.59-3.11.051-4.16C11.542 1.87 10.234.948 8.785.64 8.375.55 6.565.5 4.142.5H.166v7.871Zm8.17-4.928c.705.32 1.064.896 1.064 1.728 0 .768-.32 1.357-.923 1.69-.36.192-.808.243-2.822.269l-2.41.05V3.189h2.282c1.962 0 2.347.039 2.809.256ZM49.158 8.5v7.744h2.95V.756h-2.95V8.5Zm16.314-.486c.038 5.965.038 5.99.333 6.592.334.678 1.129 1.446 1.77 1.715.282.115.923.18 1.847.18h1.41v-2.56h-.82c-.629 0-.885-.065-1.154-.27l-.334-.255V7.412h2.309V4.98h-2.309V2.036h-3.091l.039 5.978Z" fill="#fff"/><path d="M16.685 4.967c-1.039.346-1.744.781-2.501 1.575-.77.832-1.129 1.472-1.385 2.56-.693 2.918.577 5.721 3.142 6.937.795.384.898.397 2.5.397 1.437 0 1.77-.038 2.412-.307.898-.359 2.09-1.408 2.565-2.279l.334-.627-1.026-.601c-.565-.333-1.078-.602-1.13-.602-.05 0-.268.256-.5.563-.512.743-1.205 1.19-2.051 1.357-.757.14-1.296.064-1.95-.269-.77-.384-1.539-1.395-1.539-2.035 0-.256.052-.256 4.233-.256h4.232v-1.075c0-2.458-1.142-4.275-3.27-5.21-.911-.41-3.027-.473-4.066-.128Zm3.463 2.496c.333.23.654.602.859 1.024l.333.653-2.847.038c-1.564.013-2.873 0-2.911-.038-.18-.18.744-1.318 1.385-1.702.654-.397.77-.423 1.68-.384.82.038 1.052.09 1.5.41Zm19.79-2.547c-1.655.461-3.181 1.677-3.81 3.047-.448.998-.64 2.534-.448 3.699.5 3.033 2.744 4.838 6.027 4.838 1.924 0 3.207-.46 4.45-1.574.719-.653 1.206-1.472 1.527-2.573.27-.934.205-3.034-.115-3.917-.526-1.446-1.924-2.79-3.502-3.353-.974-.359-3.13-.436-4.13-.167Zm3.129 2.867c1.795.794 2.385 3.188 1.18 4.775-.86 1.126-2.668 1.549-3.886.909-.667-.359-1.385-1.152-1.59-1.767-.257-.768-.103-2.137.294-2.739.911-1.37 2.489-1.83 4.002-1.178ZM23.932 5.16c.038.09 1.064 2.624 2.283 5.631l2.218 5.466 1.398-.038 1.398-.039 2.168-5.312c1.193-2.918 2.206-5.44 2.244-5.606l.077-.294-1.565.038-1.577.038-1.36 3.61c-.743 1.984-1.397 3.571-1.436 3.52-.051-.051-.68-1.69-1.41-3.648L27.035 4.98h-1.59c-1.283 0-1.565.039-1.514.18Zm29.715 3.314c0 1.972.064 3.828.141 4.25.282 1.562 1.116 2.637 2.54 3.315.82.384.91.397 2.578.397 1.628 0 1.782-.026 2.5-.358 1.424-.666 2.335-1.83 2.617-3.354.077-.422.14-2.278.14-4.25V4.98h-2.936l-.039 3.482c-.038 3.34-.05 3.52-.333 4.032-.41.768-1.103 1.1-2.142 1.036-.923-.05-1.45-.37-1.808-1.088-.218-.435-.244-.87-.282-3.98l-.039-3.482h-2.937v3.494Z" fill="#fff"/></svg>