<svg width="65" height="29" fill="none" xmlns="http://www.w3.org/2000/svg"><path d="M36.559 1.021v12.98h-3.524V1.02h3.524Zm8.666 4.056c-.034-.422-.192-.752-.475-.988-.279-.237-.704-.355-1.274-.355-.363 0-.661.044-.893.133-.229.084-.398.2-.508.348a.86.86 0 0 0-.17.507.832.832 0 0 0 .082.425c.067.123.173.235.317.336.143.097.327.186.551.266.224.08.49.152.799.216l1.064.228c.718.152 1.333.353 1.844.602.512.25.93.543 1.255.88.325.334.564.71.716 1.129.157.418.237.874.241 1.369-.004.853-.218 1.576-.64 2.167-.422.591-1.027 1.042-1.813 1.35-.781.308-1.721.463-2.82.463-1.128 0-2.112-.167-2.953-.501-.836-.334-1.487-.847-1.952-1.54-.46-.697-.693-1.589-.697-2.674h3.346c.021.397.12.73.298 1 .178.271.427.476.748.615.325.14.712.21 1.16.21.376 0 .69-.047.944-.14.253-.093.446-.221.577-.386a.913.913 0 0 0 .203-.564.801.801 0 0 0-.197-.52c-.123-.152-.325-.287-.608-.406a6.471 6.471 0 0 0-1.148-.342l-1.292-.279c-1.15-.249-2.056-.665-2.719-1.248-.66-.587-.987-1.388-.982-2.402-.005-.824.215-1.544.659-2.161.448-.621 1.067-1.105 1.857-1.451.794-.347 1.704-.52 2.731-.52 1.048 0 1.954.175 2.719.526.764.35 1.354.845 1.768 1.483.418.634.63 1.375.634 2.224h-3.372ZM62.688 7.51c0 1.446-.281 2.665-.843 3.658-.562.988-1.32 1.738-2.275 2.25-.955.506-2.02.76-3.194.76-1.183 0-2.252-.256-3.207-.767-.95-.515-1.707-1.267-2.269-2.256-.557-.993-.836-2.208-.836-3.644 0-1.445.279-2.662.836-3.65.562-.993 1.319-1.743 2.27-2.25.954-.511 2.023-.767 3.206-.767 1.174 0 2.239.256 3.194.767.955.507 1.713 1.257 2.275 2.25.562.988.843 2.205.843 3.65Zm-3.625 0c0-.776-.104-1.431-.31-1.964-.203-.536-.505-.942-.907-1.216-.397-.28-.887-.419-1.47-.419s-1.075.14-1.477.419c-.397.274-.699.68-.906 1.216-.203.533-.304 1.188-.304 1.965 0 .777.101 1.434.304 1.97.207.533.51.939.906 1.218.402.274.894.412 1.477.412.583 0 1.073-.138 1.47-.412.402-.28.704-.685.906-1.217.207-.537.31-1.194.31-1.971ZM32.927 28v-1.072l2.846-2.79c.272-.275.499-.519.68-.733a2.69 2.69 0 0 0 .409-.62c.09-.2.136-.413.136-.64 0-.26-.059-.48-.176-.665a1.17 1.17 0 0 0-.485-.432 1.562 1.562 0 0 0-.7-.152c-.27 0-.506.056-.709.168-.202.11-.36.265-.472.468-.11.203-.164.445-.164.725h-1.413c0-.52.119-.973.356-1.357.238-.384.565-.682.98-.893.42-.21.9-.316 1.442-.316.55 0 1.033.103 1.449.308.416.206.739.487.968.845.233.357.349.766.349 1.225 0 .306-.06.608-.177.904-.117.296-.324.625-.62.985-.293.36-.706.796-1.237 1.309l-1.413 1.437v.056h3.57V28h-5.619Zm7.301 0 3.486-6.9v-.056h-4.047v-1.24h5.584v1.268L41.769 28h-1.541Zm9.169.157c-.66 0-1.225-.167-1.697-.5-.47-.337-.832-.821-1.085-1.454-.25-.635-.376-1.4-.376-2.293.002-.894.13-1.655.38-2.282.253-.63.615-1.11 1.085-1.44.472-.331 1.036-.497 1.693-.497.656 0 1.22.166 1.693.496.472.331.834.812 1.084 1.441.254.63.38 1.39.38 2.282 0 .896-.126 1.662-.38 2.297-.25.633-.612 1.116-1.084 1.45-.47.333-1.034.5-1.693.5Zm0-1.253c.512 0 .916-.252 1.212-.757.3-.507.449-1.253.449-2.237 0-.651-.068-1.198-.204-1.641-.136-.443-.329-.777-.577-1a1.262 1.262 0 0 0-.88-.341c-.51 0-.913.253-1.21.76-.295.505-.445 1.245-.447 2.222-.003.654.062 1.203.196 1.649.136.445.328.782.576 1.008.248.225.543.337.885.337Zm7.517 1.253c-.659 0-1.224-.167-1.697-.5-.47-.337-.83-.821-1.084-1.454-.251-.635-.377-1.4-.377-2.293.003-.894.13-1.655.38-2.282.254-.63.616-1.11 1.085-1.44.473-.331 1.037-.497 1.694-.497.656 0 1.22.166 1.693.496.472.331.834.812 1.084 1.441.254.63.38 1.39.38 2.282 0 .896-.126 1.662-.38 2.297-.25.633-.612 1.116-1.084 1.45-.47.333-1.034.5-1.694.5Zm0-1.253c.513 0 .917-.252 1.213-.757.3-.507.449-1.253.449-2.237 0-.651-.069-1.198-.205-1.641-.136-.443-.328-.777-.576-1a1.262 1.262 0 0 0-.88-.341c-.51 0-.913.253-1.21.76-.295.505-.445 1.245-.448 2.222-.002.654.063 1.203.197 1.649.136.445.328.782.576 1.008.248.225.543.337.884.337Zm7.823-7.101V28h-1.485v-6.752h-.049l-1.917 1.225v-1.361l2.038-1.309h1.413ZM23.513 4.833a13.53 13.53 0 0 0-9.63-3.989 13.53 13.53 0 0 0-9.63 3.989 13.53 13.53 0 0 0-3.99 9.63 13.53 13.53 0 0 0 3.99 9.63 13.53 13.53 0 0 0 9.63 3.99 13.53 13.53 0 0 0 9.63-3.99 13.53 13.53 0 0 0 3.99-9.63 13.53 13.53 0 0 0-3.99-9.63ZM23.4 21.627a16.984 16.984 0 0 0-2.551-1.425c.39-1.522.622-3.175.68-4.887h4.24a11.852 11.852 0 0 1-2.37 6.312ZM1.997 15.315h4.24a22.89 22.89 0 0 0 .68 4.887c-.884.398-1.737.874-2.551 1.425a11.852 11.852 0 0 1-2.37-6.312ZM4.366 7.3a16.973 16.973 0 0 0 2.55 1.425 22.887 22.887 0 0 0-.68 4.887h-4.24A11.852 11.852 0 0 1 4.367 7.3Zm15.083-2.266a11.51 11.51 0 0 0-1.007-1.58 11.957 11.957 0 0 1 3.829 2.553c-.618.406-1.26.765-1.924 1.074-.26-.727-.56-1.412-.898-2.047Zm-.69 2.682c-1.554.52-3.194.789-4.876.789-1.682 0-3.322-.268-4.877-.79 1.09-3.098 2.888-5.169 4.877-5.169 1.989 0 3.788 2.07 4.876 5.17ZM7.941 13.612a21.34 21.34 0 0 1 .581-4.262c1.71.566 3.513.857 5.36.857 1.85 0 3.652-.29 5.361-.857.322 1.314.526 2.754.582 4.262H7.941Zm11.884 1.703a21.348 21.348 0 0 1-.582 4.262 17.013 17.013 0 0 0-5.36-.858c-1.848 0-3.65.292-5.36.858a21.337 21.337 0 0 1-.582-4.262h11.884ZM8.317 5.035a15.186 15.186 0 0 0-.899 2.046 15.262 15.262 0 0 1-1.923-1.074 11.956 11.956 0 0 1 3.829-2.553 11.51 11.51 0 0 0-1.007 1.58Zm-.899 16.811c.26.727.56 1.412.899 2.046a11.53 11.53 0 0 0 1.007 1.581 11.958 11.958 0 0 1-3.829-2.553 15.453 15.453 0 0 1 1.923-1.074Zm1.589-.635a15.31 15.31 0 0 1 4.876-.79c1.682 0 3.322.27 4.876.79-1.088 3.1-2.887 5.17-4.876 5.17-1.99 0-3.788-2.07-4.876-5.17Zm10.442 2.681c.338-.634.638-1.319.898-2.046.663.31 1.305.668 1.924 1.074a11.956 11.956 0 0 1-3.83 2.553c.36-.468.696-.996 1.008-1.58Zm2.08-10.28a22.894 22.894 0 0 0-.68-4.887A16.972 16.972 0 0 0 23.4 7.3a11.852 11.852 0 0 1 2.37 6.312h-4.241Z" fill="#686F7D"/></svg>