<svg width="77" height="33" fill="none" xmlns="http://www.w3.org/2000/svg"><g clip-path="url(#a)" fill="#686F7D"><path d="M25.523 2.458A16.035 16.035 0 0 0 16.837.531 16.01 16.01 0 0 0 8.47 3.565a15.856 15.856 0 0 0-5.508 7.132 15.947 15.947 0 0 0-1.05 4.616h3.97a12.026 12.026 0 0 1 3.796-7.707 11.977 11.977 0 0 1 7.966-3.207 12.054 12.054 0 0 1 8.253 3.063 12.11 12.11 0 0 1 3.97 7.851h3.953c-.258-4.328-2.688-9.778-8.296-12.855Zm-6.529 10.094a1.98 1.98 0 0 1-1.006.648c-.388.115-.805.1-1.194-.044a1.622 1.622 0 0 1-.762-.431 1.717 1.717 0 0 1-.503-1.596c.057-.288.187-.561.374-.777a2.06 2.06 0 0 1 1.337-.661c.518-.043 1.021.1 1.424.417.13.1.244.216.36.33.143-.1.287-.215.46-.33a2.111 2.111 0 0 0-.72-.662 2.81 2.81 0 0 0-1.74-.316 2.64 2.64 0 0 0-.92.273 2.5 2.5 0 0 0-.733.604 2.217 2.217 0 0 0-.489 1.74c.043.388.187.777.417 1.093.23.316.546.575.906.733.431.202.92.274 1.395.23a2.59 2.59 0 0 0 1.581-.618c.115-.1.202-.216.317-.316l-.49-.345s0 .014-.014.028Zm3.638 1.18h.69l.72-1.438h1.912l.733 1.438h.676c-.79-1.597-1.567-3.178-2.358-4.76-.79 1.582-1.582 3.163-2.373 4.76Zm1.711-2.028c.216-.446.446-.877.662-1.323.23.446.446.892.661 1.323h-1.323ZM8.426 13.731h.69c.244-.474.489-.963.719-1.437h1.912c.245.474.49.963.733 1.438h.676l-2.358-4.774c-.79 1.596-1.582 3.177-2.372 4.774Zm1.696-2.027c.216-.446.446-.877.676-1.337.23.46.446.891.662 1.337h-1.338Zm13.071-.604c.1-.158.173-.345.187-.532a1.243 1.243 0 0 0-.086-.56 1.297 1.297 0 0 0-.33-.46 1.125 1.125 0 0 0-.504-.26 2.122 2.122 0 0 0-.676-.072c-.46-.014-.92 0-1.395 0h-.072v4.516h.604v-2.028h.446c.288-.014.59-.014.877-.043a1.49 1.49 0 0 0 .547-.158c.158-.115.302-.245.402-.403Zm-.489-.431a.564.564 0 0 1-.244.302.712.712 0 0 1-.374.115c-.374.014-.762 0-1.15 0V9.763c.402.014.79.014 1.179.029.1 0 .201.028.287.071a.616.616 0 0 1 .23.202.745.745 0 0 1 .072.604Zm-9.188 3.048h.618V9.202h-.618v4.515Zm40.837 11.791h1.064v3.35h1.194v-3.35h1.064v-.934h-3.307v.934h-.015Zm3.653 3.336h1.193V24.56h-1.193v4.285Zm5.593 0h1.194V24.56h-1.194v4.285Zm-3.652-3.436v3.436h1.193v-1.697h1.467v-.877H61.14v-.862h1.913v-.849H59.96l-.014.849Zm5.593 3.45h3.092v-.848H66.72v-.963h1.466v-.877H66.72v-.762h1.912v-.849H65.54v4.3Zm-18.837 0h3.092v-.848h-1.912v-.963h1.466v-.877h-1.466v-.762h1.912v-.849h-3.092v4.3Zm24.345-4.299h-1.769v4.285h1.769a1.917 1.917 0 0 0 1.912-1.912v-.475c0-.503-.201-.992-.56-1.351a1.965 1.965 0 0 0-1.352-.547Zm-.59 3.451v-2.588c.417 0 1.294-.187 1.294 1.294.015 1.467-.862 1.294-1.294 1.294Zm-16.435-2.114c0-.172-.03-.345-.101-.517a1.736 1.736 0 0 0-.288-.432 1.417 1.417 0 0 0-.431-.287c-.158-.072-.33-.1-.518-.1h-2.229v4.284h1.194v-1.61h.431l.662 1.61h1.337l-.733-1.783c.201-.115.374-.287.503-.489a1.35 1.35 0 0 0 .173-.675Zm-1.668.49h-.705v-.978h.705c.129 0 .258.057.345.143a.502.502 0 0 1 .143.346.505.505 0 0 1-.143.345.446.446 0 0 1-.345.143Zm-7.837-6.256h1.625v-4.587h1.452v-.36L48.99 17.7v2.445h1.625V17.7l1.912-3.436h-1.74l-.978 1.84-.977-1.84h-5.767v1.294h1.453v4.572Zm17.801-4.716v-1.165h-4.256v5.881h4.256v-1.15h-2.617v-1.323h2.014V16.45h-2.014v-1.035h2.617Zm-17.873 9.03h-.158a1.93 1.93 0 0 0-1.338.547c-.359.359-.56.834-.56 1.337v.733c0 .245.043.49.143.72.101.23.23.43.403.617.173.173.388.317.618.403.23.1.475.144.72.144h.157c.46 0 .892-.187 1.223-.503.33-.317.503-.762.503-1.223h-1.136c-.086.633-.374.849-.719.849-.417 0-.748-.302-.748-1.309 0-.992.331-1.438.748-1.438.33 0 .618.302.72.935h1.135v-.086c0-.46-.187-.906-.503-1.223a1.684 1.684 0 0 0-1.208-.503Zm13.991-14.12h.216a2.331 2.331 0 0 0 2.33-2.315h-1.525c-.115.848-.503 1.135-.963 1.135-.561 0-1.007-.417-1.007-1.754s.446-1.941 1.007-1.941c.445 0 .834.403.963 1.251h1.524v-.13c0-.618-.244-1.207-.676-1.653a2.351 2.351 0 0 0-1.653-.676h-.216c-.676 0-1.323.273-1.797.748a2.548 2.548 0 0 0-.748 1.797v.992c0 .331.072.662.187.978.13.302.316.59.546.82.23.23.518.417.82.546.316.144.647.202.992.202Zm-1.668 7.232c.058-.043.115-.086.158-.129.015-.014.029-.014.029-.029.043-.043.072-.072.1-.115a.28.28 0 0 0 .058-.072c.029-.028.043-.057.058-.086a.314.314 0 0 0 .072-.115c.158-.273.244-.604.244-.92 0-.245-.043-.475-.144-.705a1.657 1.657 0 0 0-.402-.59 2.044 2.044 0 0 0-.59-.402 1.925 1.925 0 0 0-.704-.144h-3.063v5.881h1.624v-2.2h1.424c.431 0 .82-.13 1.136-.374Zm-2.516-2.142h.963a.68.68 0 0 1 .475.201c.129.13.2.302.2.475a.677.677 0 0 1-.2.474.676.676 0 0 1-.475.202h-.963v-1.352Zm12.898-1.165h-1.625v5.881h1.625v-5.88Zm1.05 5.881h1.625v-5.88H68.2v5.88Zm-15.573-9.806h.316c.36 0 .705-.087 1.035-.245.317-.158.604-.388.82-.676.388-.46.59-1.035.59-1.625v-.992c0-.59-.202-1.164-.59-1.625a2.326 2.326 0 0 0-.82-.675 2.332 2.332 0 0 0-1.035-.245h-.316c-.36 0-.72.086-1.035.245a2.326 2.326 0 0 0-.82.675 2.592 2.592 0 0 0-.59 1.625v.992c0 .59.202 1.165.59 1.625.215.288.503.518.82.676.316.158.675.245 1.035.245Zm-.676-4.142c.029-.1.072-.187.115-.259.014-.014.014-.028.029-.043.014-.014.029-.043.043-.057.014-.015.014-.029.029-.043a.581.581 0 0 1 .043-.043c.014-.015.029-.03.029-.044l.043-.043.028-.028c.03-.015.058-.044.072-.058l.015-.014c.028-.015.043-.03.072-.03.014 0 .014-.014.028-.014.03-.014.044-.014.072-.028h.029c.029 0 .058-.015.086-.015h.23c.03 0 .058.015.087.015h.028c.03 0 .044.014.072.028.015 0 .015 0 .03.015.028.014.042.029.071.029l.014.014a.311.311 0 0 1 .072.058l.029.028.043.043c.015.015.029.03.029.044l.043.043c.014.014.029.028.029.043.014.014.028.043.043.057.014.015.014.03.029.043.043.087.086.173.115.26.13.388.187.79.172 1.207.015.33-.029.662-.115.992v.03a.69.69 0 0 1-.043.1 3.1 3.1 0 0 1-.1.215s0 .015-.015.015c-.014.029-.029.057-.058.072v.014c-.014.029-.043.043-.057.072a1.07 1.07 0 0 1-.201.158c-.015.015-.029.015-.058.029-.014 0-.029.014-.029.014-.014 0-.028.015-.043.015-.014 0-.028.014-.057.014-.015 0-.029 0-.029.014-.029 0-.043.015-.072.015h-.23c-.029 0-.043 0-.072-.015-.014 0-.029 0-.029-.014-.014 0-.028-.014-.057-.014-.014 0-.029-.015-.043-.015-.015 0-.029-.014-.043-.014-.015 0-.03-.014-.058-.029-.072-.043-.144-.086-.201-.158a.311.311 0 0 1-.058-.072v-.014c-.014-.029-.029-.043-.057-.072 0 0 0-.015-.015-.015a1.339 1.339 0 0 1-.1-.215c-.015-.029-.029-.072-.043-.1v-.03a3.293 3.293 0 0 1-.116-.992c-.057-.402 0-.82.13-1.208Zm-4.86 2.991c-.806 0-1.05-.79-1.079-.92l-.805.187-.676.13c.144.761.762 1.84 2.517 1.84 2.257 0 2.473-1.496 2.473-1.97 0-1.222-1.007-1.539-2.114-1.913-.69-.23-.877-.316-.877-.618s.288-.474.647-.474c.475 0 .748.258.949.69l1.309-.46c-.26-.748-.763-1.453-2.316-1.453-1.552 0-2.228.993-2.228 1.74 0 1.036.489 1.481 1.71 1.898.907.317 1.295.403 1.295.806-.014.302-.273.517-.805.517ZM66.36 5.55c.446.129.503.59.36.906-.144.33-.763.862-1.064 1.092a477.59 477.59 0 0 0-1.855 1.424v1.294h4.615V8.972h-2.545s.374-.259 1.237-.877c.863-.619 1.208-1.338 1.208-1.826 0-.49-.015-2.028-2.215-2.028-2.2 0-2.387 1.97-2.387 1.97l1.438.417c.158-1.093.877-1.179 1.208-1.078ZM18.103 28.456c-2.56.072-5.09-.705-7.161-2.2C8.21 24.3 6.57 21.654 5.98 18.347H1.984c.834 7.88 7.865 14.682 16.895 14.12 8.326-.502 14.207-7.174 14.883-14.12h-3.997a11.969 11.969 0 0 1-3.998 7.161 12.035 12.035 0 0 1-7.664 2.948Zm-1.51-4.415c.316.13.662.202 1.007.188.345 0 .69-.087 1.006-.23a2.19 2.19 0 0 0 .762-.547c.202-.245.36-.532.432-.834a2.594 2.594 0 0 0-.03-1.481 2.026 2.026 0 0 0-.373-.72 1.788 1.788 0 0 0-.633-.502 2.344 2.344 0 0 0-1.164-.26h-.26c-.057 0-.1.015-.157.015a2.11 2.11 0 0 0-.95.345 2.06 2.06 0 0 0-.675.734c-.23.417-.317.891-.288 1.351.058.906.475 1.582 1.323 1.941Zm.388-3.58c.288-.115.619-.144.92-.086.302.072.59.23.791.474.26.345.389.762.36 1.194a1.723 1.723 0 0 1-.532 1.136c-.676.604-2.1.474-2.401-.82a1.754 1.754 0 0 1-.044-.316c-.028-.734.317-1.337.906-1.582ZM13.2 23.51a1.09 1.09 0 0 1-.517-.116 1.122 1.122 0 0 1-.388-.345l-.561.604c.144.173.33.302.532.389.402.172.834.215 1.265.143.705-.115 1.165-.575 1.208-1.25a1.104 1.104 0 0 0-.13-.676 1.148 1.148 0 0 0-.503-.475c-.187-.086-.388-.158-.575-.23-.215-.072-.431-.173-.647-.273a.419.419 0 0 1-.201-.245.48.48 0 0 1 .014-.316.604.604 0 0 1 .13-.201.544.544 0 0 1 .2-.115.962.962 0 0 1 .605-.03.977.977 0 0 1 .503.317c.187-.201.374-.388.56-.59a.298.298 0 0 0-.114-.086 1.936 1.936 0 0 0-1.18-.36 2.04 2.04 0 0 0-1.034.288c-.705.432-.777 1.683.114 2.085.216.101.446.159.662.245.187.072.374.158.546.259.058.043.115.1.144.172a.406.406 0 0 1 .058.216.65.65 0 0 1-.043.23.59.59 0 0 1-.144.187c-.1.115-.302.172-.503.172Zm7.722.028c.72.705 1.568.834 2.502.547a1.67 1.67 0 0 0 .834-.633l-.647-.46c-.029.029-.043.043-.057.072-.633.762-1.64.474-2.057-.058a1.676 1.676 0 0 1-.302-.647 1.724 1.724 0 0 1-.028-.719c.043-.36.215-.69.489-.934.43-.389 1.294-.576 1.854.043.015.014.03.028.044.028l.604-.445a1.722 1.722 0 0 0-.59-.475 2.265 2.265 0 0 0-1.337-.187 2.144 2.144 0 0 0-1.438.834c-.33.46-.49 1.021-.446 1.582a2.019 2.019 0 0 0 .575 1.452Zm-1.625 1.61a.533.533 0 0 0-.172.346.514.514 0 0 0 .1.374.61.61 0 0 0 .173.144.602.602 0 0 0 .216.057c.072.014.143 0 .215-.029a.392.392 0 0 0 .173-.13c.014.26-.029.404-.173.461a.442.442 0 0 1-.302.029.527.527 0 0 1-.258-.158.56.56 0 0 0-.116.143.64.64 0 0 0 .302.173.7.7 0 0 0 .346 0 .438.438 0 0 0 .23-.115.374.374 0 0 0 .13-.23c.014-.072.028-.144.028-.216v-.92h-.158c0 .043 0 .086-.015.144a.502.502 0 0 0-.345-.173.546.546 0 0 0-.374.1Zm.705.403c0 .044 0 .101-.029.144a.315.315 0 0 1-.072.115.805.805 0 0 1-.115.087.433.433 0 0 1-.144.028.408.408 0 0 1-.244-.1.408.408 0 0 1-.1-.245c0-.043 0-.086.014-.13a.314.314 0 0 1 .072-.114.313.313 0 0 1 .115-.072.4.4 0 0 1 .13-.029c.042 0 .085.014.128.029a.313.313 0 0 1 .116.072.313.313 0 0 1 .071.115c.043 0 .058.043.058.1Zm-5.493-.488h-.158v1.466h.158v-.618c.259.215.518.23.719.043a.592.592 0 0 0 .158-.345.528.528 0 0 0-.1-.36.483.483 0 0 0-.288-.186.525.525 0 0 0-.259 0c-.086.014-.158.071-.23.143v-.143Zm.36.129c.043 0 .1.014.143.029a.224.224 0 0 1 .115.086.313.313 0 0 1 .072.115c.015.043.029.086.015.144 0 .043 0 .086-.015.13a.313.313 0 0 1-.072.114c-.028.029-.072.058-.115.087-.043.014-.086.028-.13.028a.513.513 0 0 1-.143-.029.314.314 0 0 1-.115-.071.314.314 0 0 1-.072-.116c-.014-.043-.029-.086-.029-.143 0-.043 0-.1.03-.144a.315.315 0 0 1 .071-.115.805.805 0 0 1 .115-.086.288.288 0 0 1 .13-.03Zm2.329.36a.81.81 0 0 0 .029.2c.029.073.072.13.115.173.057.043.115.087.172.115.072.029.13.029.202.029.072 0 .143 0 .2-.029a.368.368 0 0 0 .174-.115c.043-.057.086-.1.114-.172a.33.33 0 0 0 .03-.202c0-.071 0-.143-.03-.201a.367.367 0 0 0-.114-.173.724.724 0 0 0-.173-.114c-.072-.03-.13-.03-.201-.03-.072 0-.144 0-.202.03a.367.367 0 0 0-.172.114.367.367 0 0 0-.115.173.849.849 0 0 0-.03.201Zm.877 0c0 .043 0 .1-.014.143a.313.313 0 0 1-.072.115.82.82 0 0 1-.115.087.439.439 0 0 1-.144.028.413.413 0 0 1-.13-.029.314.314 0 0 1-.114-.071.314.314 0 0 1-.072-.116c-.015-.043-.03-.086-.03-.129 0-.043 0-.1.015-.144a.311.311 0 0 1 .072-.115c.029-.029.072-.057.115-.086a.425.425 0 0 1 .144-.029c.043 0 .1.015.144.029a.224.224 0 0 1 .115.086.313.313 0 0 1 .072.115c.014.03.014.072.014.115Zm3.954 0c0 .071.015.143.044.2.028.073.072.13.115.173.057.043.115.087.172.115.072.029.13.029.201.029a.853.853 0 0 0 .202-.029.367.367 0 0 0 .172-.115.721.721 0 0 0 .115-.172c.03-.072.03-.13.03-.202a.854.854 0 0 0-.03-.201c-.028-.058-.057-.13-.115-.173a1.137 1.137 0 0 0-.172-.114c-.072-.03-.13-.03-.201-.03-.072 0-.144 0-.202.03a.366.366 0 0 0-.172.114.366.366 0 0 0-.115.173.507.507 0 0 0-.044.201Zm.878.014c0 .043 0 .086-.015.13a.315.315 0 0 1-.072.114.315.315 0 0 1-.115.072.42.42 0 0 1-.13.029.51.51 0 0 1-.143-.029.224.224 0 0 1-.115-.086.313.313 0 0 1-.072-.115.425.425 0 0 1-.029-.144c0-.043 0-.1.03-.144.028-.043.042-.086.071-.115a.794.794 0 0 1 .115-.086.409.409 0 0 1 .144-.029c.043 0 .1.014.144.029a.224.224 0 0 1 .115.086.313.313 0 0 1 .072.115c-.015.072 0 .115 0 .173Zm-10.943.489a.399.399 0 0 0 .259 0 .442.442 0 0 0 .215-.144c0 .057.015.086.015.115h.143v-.604c0-.216-.071-.33-.215-.374-.187-.057-.49-.014-.575.144l.086.086c.33-.172.532-.115.532.144h-.144c-.115.014-.244.029-.36.072a.229.229 0 0 0-.143.115c-.029.057-.043.13-.029.187 0 .057.029.115.072.158.029.058.086.086.144.1Zm.086-.446c.115-.015.245-.029.36-.043.014.244-.101.388-.317.374a.27.27 0 0 1-.115-.03c-.029-.028-.057-.057-.057-.1v-.057c0-.015.014-.044.028-.058l.044-.043c.014-.029.043-.043.057-.043Zm4.055-.173c-.115.015-.244.03-.36.072a.229.229 0 0 0-.143.115c-.029.058-.043.115-.029.187a.23.23 0 0 0 .072.158.283.283 0 0 0 .158.087.528.528 0 0 0 .259.014.442.442 0 0 0 .216-.144c.014.043.014.087.028.115h.144v-.632c0-.072 0-.13-.043-.202a.345.345 0 0 0-.144-.143.483.483 0 0 0-.316-.03.5.5 0 0 0-.288.144l.087.116a.378.378 0 0 1 .215-.101.41.41 0 0 1 .23.029c.03.014.058.057.087.086a.318.318 0 0 1 .014.115c-.1.014-.144.014-.187.014Zm-.201.49a.13.13 0 0 1-.1-.044.233.233 0 0 1-.058-.1c-.015-.044 0-.073.014-.101.014-.029.057-.058.086-.058.13-.029.26-.029.388-.057.03.259-.114.388-.33.36Zm5.665-.015a.41.41 0 0 1-.187 0 .228.228 0 0 1-.143-.115.795.795 0 0 1-.13.1.448.448 0 0 0 .23.173c.1.029.201.029.288 0a.3.3 0 0 0 .187-.1.343.343 0 0 0 .072-.202c0-.144-.087-.23-.245-.273a1.188 1.188 0 0 1-.216-.058c-.043-.014-.1-.072-.086-.1.015-.03.029-.043.043-.072a.29.29 0 0 1 .072-.043.296.296 0 0 1 .158 0 .23.23 0 0 1 .13.1l.13-.086c-.101-.23-.475-.23-.62-.086a.314.314 0 0 0-.071.115.2.2 0 0 0 0 .13.28.28 0 0 0 .058.114.436.436 0 0 0 .1.072c.086.029.187.058.273.072.072.014.13.057.116.13a.314.314 0 0 1-.044.071c-.057.03-.086.043-.115.058Zm2.46-.604c.042-.043.085-.072.129-.115a.556.556 0 0 0-.777 0 .672.672 0 0 0-.13.402.553.553 0 0 0 .188.374c.1.072.23.115.36.101a.5.5 0 0 0 .33-.172.82.82 0 0 0-.115-.101.625.625 0 0 1-.1.086.42.42 0 0 1-.13.029c-.043 0-.087 0-.13-.015a.314.314 0 0 1-.115-.071.429.429 0 0 1-.115-.26c0-.1.015-.186.072-.273a.223.223 0 0 1 .115-.086c.043-.014.086-.029.144-.029a.5.5 0 0 1 .144.03c.057.042.1.071.13.1Zm-10.296-.1a.35.35 0 0 1 .172 0c.058.014.1.057.144.1.043-.043.086-.086.13-.115a.515.515 0 0 0-.36-.158.51.51 0 0 0-.374.143.548.548 0 0 0-.144.389c0 .143.058.273.158.388.101.086.23.13.36.13a.57.57 0 0 0 .36-.144l-.101-.13c-.187.144-.36.158-.49.029a.408.408 0 0 1-.1-.244c0-.087.014-.187.072-.26a.292.292 0 0 1 .173-.129Zm7.333-.691a.596.596 0 0 1-.144-.057c-.215.546-.417 1.078-.633 1.61l.144.058c.216-.532.417-1.064.633-1.611Zm-2.387.906c0-.029.014-.072.029-.1a.173.173 0 0 1 .072-.073.688.688 0 0 1 .1-.043.123.123 0 0 1 .101 0h.058v-.158a.546.546 0 0 0-.216.015.392.392 0 0 0-.173.129c-.014-.058-.014-.086-.014-.115h-.144v.978h.158v-.202c.015-.144.015-.287.029-.431Zm-5.78.618h.158v-.977h-.158v.977Zm3.81-.115v.058c0 .014.014.029.029.043.014.014.029.029.043.029.014 0 .029.014.043 0 .072 0 .115-.043.13-.13 0-.014 0-.029-.015-.043 0-.014-.014-.029-.029-.043-.014-.014-.028-.014-.043-.029-.014 0-.029-.014-.043 0h-.043c-.014 0-.029.015-.043.029-.015.014-.015.029-.029.043v.043Zm-3.624-1.236c0-.087-.043-.13-.115-.13h-.043c-.014 0-.028.015-.043.029-.014.014-.014.029-.029.043-.014.014-.014.029-.014.043v.043c0 .015.014.03.029.044.014.014.029.014.043.028.014 0 .029.015.043.015h.043c.014 0 .029-.015.043-.03.015-.014.015-.028.03-.042.013-.015.013-.029.013-.043ZM38.68 21.97v.33h37.976v-.33H38.68Zm0 9.677h37.976v-.33H38.68v.33Zm-3.207-13.501v-2.631H.344v2.631h35.13Z"/></g><defs><clipPath id="a"><path fill="#fff" transform="translate(0 .5)" d="M0 0h77v32H0z"/></clipPath></defs></svg>