<svg width="108" height="33" fill="none" xmlns="http://www.w3.org/2000/svg"><path d="M15.306 2.513a.29.29 0 0 1 .078.25l-.15.942a.28.28 0 0 0 .117.281.29.29 0 0 0 .308.02l.766-.426a.305.305 0 0 1 .281 0l.766.426a.29.29 0 0 0 .308-.02.28.28 0 0 0 .118-.281l-.15-.943a.29.29 0 0 1 .078-.249l.661-.68a.293.293 0 0 0-.164-.491l-.89-.138a.28.28 0 0 1-.216-.163l-.386-.825a.308.308 0 0 0-.268-.157.284.284 0 0 0-.262.163l-.387.825a.292.292 0 0 1-.216.164l-.89.137a.293.293 0 0 0-.163.491l.66.674Zm3.017 27.73-.89-.138a.28.28 0 0 1-.216-.163l-.386-.825a.28.28 0 0 0-.262-.164.291.291 0 0 0-.262.164l-.386.825a.292.292 0 0 1-.216.163l-.89.138a.294.294 0 0 0-.164.49l.661.681a.29.29 0 0 1 .079.25l-.15.942a.28.28 0 0 0 .117.281.29.29 0 0 0 .308.02l.766-.426a.305.305 0 0 1 .281 0l.766.426a.29.29 0 0 0 .308-.02.28.28 0 0 0 .117-.281l-.15-.943a.29.29 0 0 1 .078-.249l.662-.68a.287.287 0 0 0 .065-.295.291.291 0 0 0-.236-.196ZM8.347 4.72a.29.29 0 0 0-.078-.25l-.662-.673a.301.301 0 0 1-.065-.295.282.282 0 0 1 .23-.196l.89-.138a.292.292 0 0 0 .215-.164l.393-.824a.3.3 0 0 1 .262-.164c.111 0 .216.065.262.164l.386.824a.28.28 0 0 0 .216.164l.89.131c.105.02.197.092.23.196a.287.287 0 0 1-.066.295l-.661.674a.29.29 0 0 0-.079.249l.15.943a.28.28 0 0 1-.117.281.29.29 0 0 1-.308.02L9.67 5.53a.305.305 0 0 0-.282 0l-.766.426a.277.277 0 0 1-.308-.013.28.28 0 0 1-.117-.282l.15-.942Zm17.386 23.605-.89-.138a.28.28 0 0 1-.216-.164l-.386-.824a.291.291 0 0 0-.524 0l-.386.824a.292.292 0 0 1-.216.164l-.89.138a.282.282 0 0 0-.23.196.301.301 0 0 0 .066.295l.661.68a.29.29 0 0 1 .079.25l-.15.942a.28.28 0 0 0 .117.281c.092.066.21.072.308.013l.766-.425a.305.305 0 0 1 .281 0l.766.425a.29.29 0 0 0 .308-.02.28.28 0 0 0 .118-.28l-.151-.943a.29.29 0 0 1 .078-.25l.662-.68a.287.287 0 0 0 .065-.294c-.033-.105-.13-.17-.236-.19ZM3.104 9.708a.29.29 0 0 0-.079-.25l-.654-.68a.293.293 0 0 1 .164-.49l.89-.138a.292.292 0 0 0 .216-.164l.386-.825a.292.292 0 0 1 .262-.163.28.28 0 0 1 .262.163l.386.825a.28.28 0 0 0 .216.164l.89.137c.105.02.196.092.23.196a.287.287 0 0 1-.066.295l-.662.68a.29.29 0 0 0-.078.25l.15.942a.28.28 0 0 1-.117.282.29.29 0 0 1-.308.02l-.766-.426a.305.305 0 0 0-.281 0l-.766.425a.29.29 0 0 1-.308-.02.28.28 0 0 1-.118-.28l.15-.943ZM31.062 22.74l-.89-.137a.28.28 0 0 1-.216-.163l-.386-.825a.292.292 0 0 0-.524 0l-.386.825a.292.292 0 0 1-.216.163l-.89.138a.293.293 0 0 0-.164.49l.66.682a.29.29 0 0 1 .08.248l-.151.943a.28.28 0 0 0 .118.281.29.29 0 0 0 .307.02l.766-.425a.305.305 0 0 1 .282 0l.766.425a.305.305 0 0 0 .307-.013.28.28 0 0 0 .118-.282l-.15-.942a.29.29 0 0 1 .078-.249l.661-.68a.287.287 0 0 0 .066-.295.297.297 0 0 0-.236-.203ZM3.45 18.152a.28.28 0 0 1-.117.282.28.28 0 0 1-.301.02l-.766-.426a.305.305 0 0 0-.282 0l-.765.425a.29.29 0 0 1-.308-.02.28.28 0 0 1-.118-.28l.15-.944a.29.29 0 0 0-.078-.248l-.661-.681a.293.293 0 0 1 .164-.49l.89-.138a.292.292 0 0 0 .216-.164l.386-.825a.292.292 0 0 1 .262-.164.28.28 0 0 1 .262.164l.386.825a.28.28 0 0 0 .216.164l.89.137c.105.02.197.092.23.196a.287.287 0 0 1-.066.295l-.661.68a.29.29 0 0 0-.079.25l.15.942Zm29.478-1.872a.287.287 0 0 0 .065-.295.293.293 0 0 0-.229-.196l-.89-.137a.28.28 0 0 1-.216-.164l-.387-.825a.28.28 0 0 0-.261-.164.291.291 0 0 0-.262.164l-.386.825a.291.291 0 0 1-.216.164l-.89.137a.293.293 0 0 0-.164.49l.66.682a.29.29 0 0 1 .08.248l-.151.943a.28.28 0 0 0 .118.282.29.29 0 0 0 .307.02l.766-.426a.305.305 0 0 1 .282 0l.766.425a.29.29 0 0 0 .307-.02.28.28 0 0 0 .118-.28l-.15-.944a.29.29 0 0 1 .078-.248l.655-.681ZM5.402 22.485l.89.138a.295.295 0 0 1 .235.19.287.287 0 0 1-.065.294l-.661.681a.29.29 0 0 0-.079.249l.15.943a.28.28 0 0 1-.117.281.29.29 0 0 1-.308.02l-.766-.426a.287.287 0 0 0-.281 0l-.766.426a.277.277 0 0 1-.308-.013.28.28 0 0 1-.117-.282l.15-.942a.29.29 0 0 0-.078-.25l-.662-.68a.302.302 0 0 1-.065-.295.282.282 0 0 1 .23-.196l.89-.138a.292.292 0 0 0 .215-.163l.387-.825a.292.292 0 0 1 .523 0l.387.825a.28.28 0 0 0 .216.163ZM28.306 9.341a.29.29 0 0 1 .079.249l-.15.943a.28.28 0 0 0 .117.281.29.29 0 0 0 .308.02l.765-.426a.305.305 0 0 1 .282 0l.766.426a.29.29 0 0 0 .308-.014.29.29 0 0 0 .117-.287l-.15-.943a.29.29 0 0 1 .078-.249l.662-.68a.293.293 0 0 0-.164-.49l-.89-.14a.28.28 0 0 1-.216-.163l-.387-.825a.28.28 0 0 0-.261-.163.292.292 0 0 0-.262.163l-.387.825a.291.291 0 0 1-.216.164l-.896.144a.293.293 0 0 0-.164.49l.661.675ZM10.14 27.474l.891.137a.297.297 0 0 1 .236.203.274.274 0 0 1-.066.295l-.66.674a.29.29 0 0 0-.08.249l.151.942a.28.28 0 0 1-.118.282.29.29 0 0 1-.307.02l-.766-.426a.305.305 0 0 0-.282 0l-.766.425a.29.29 0 0 1-.307-.02.28.28 0 0 1-.118-.28l.15-.943a.29.29 0 0 0-.078-.249l-.661-.68a.293.293 0 0 1 .164-.491l.89-.138a.292.292 0 0 0 .216-.164l.386-.825a.292.292 0 0 1 .262-.163.28.28 0 0 1 .262.163l.386.825a.28.28 0 0 0 .216.164ZM22.54 4l-.151.942a.28.28 0 0 0 .117.281.29.29 0 0 0 .308.02l.766-.425a.305.305 0 0 1 .281 0l.766.425a.29.29 0 0 0 .308-.02.28.28 0 0 0 .118-.281l-.15-.943a.29.29 0 0 1 .078-.248l.66-.675a.287.287 0 0 0 .066-.294.293.293 0 0 0-.229-.197l-.89-.137a.28.28 0 0 1-.216-.164l-.386-.824a.28.28 0 0 0-.262-.164.291.291 0 0 0-.262.164l-.386.824a.292.292 0 0 1-.216.164l-.89.137a.293.293 0 0 0-.164.491l.661.675a.297.297 0 0 1 .072.248Z" fill="#686F7D"/><path fill-rule="evenodd" clip-rule="evenodd" d="M23.405 14.492a1.153 1.153 0 0 0-.848-.347h-.401v-2.384c0-1.519-.553-2.828-1.651-3.918-1.098-1.09-2.416-1.64-3.946-1.64-1.53 0-2.847.55-3.945 1.64-1.099 1.09-1.651 2.399-1.651 3.918v2.385h-.402c-.333 0-.613.112-.848.345a1.137 1.137 0 0 0-.348.843v7.145c0 .331.113.61.348.843.235.233.515.346.848.346H22.55c.334 0 .614-.113.849-.346.234-.234.348-.512.348-.843v-7.145a1.076 1.076 0 0 0-.34-.842Zm-10.042-.347v-2.384c0-.88.31-1.624.94-2.249a3.104 3.104 0 0 1 2.264-.932c.886 0 1.636.308 2.264.932.621.617.94 1.37.94 2.25v2.383h-6.408Zm2.059 6.44h-.048a.677.677 0 0 1-.449-.207l-1.306-1.427a.537.537 0 0 1 .088-.81.7.7 0 0 1 .906.08l.873.953 3.076-2.545a.698.698 0 0 1 .905.029c.24.23.225.595-.032.81l-3.573 2.96a.713.713 0 0 1-.44.158Z" fill="#686F7D"/><path d="M44.083 8.92a1.676 1.676 0 0 0-.233-.518 1.493 1.493 0 0 0-.378-.387 1.621 1.621 0 0 0-.514-.238 2.271 2.271 0 0 0-.635-.084c-.464 0-.865.112-1.205.336-.336.224-.596.55-.78.98-.183.427-.275.945-.275 1.556 0 .613.089 1.136.266 1.569.178.432.434.762.77.99.337.227.745.34 1.224.34.423 0 .781-.068 1.074-.205.296-.14.52-.338.672-.593a1.72 1.72 0 0 0 .23-.901l.429.05h-2.326V10.13h4.124v1.266c0 .856-.183 1.589-.547 2.2A3.633 3.633 0 0 1 44.485 15c-.632.327-1.359.49-2.18.49-.913 0-1.715-.198-2.406-.593a4.11 4.11 0 0 1-1.615-1.69c-.386-.735-.58-1.607-.58-2.616 0-.784.117-1.48.35-2.087.234-.61.56-1.127.977-1.55.42-.424.906-.744 1.457-.962a4.843 4.843 0 0 1 1.788-.327c.554 0 1.07.08 1.546.238.48.159.903.383 1.27.673.37.29.671.633.901 1.032.23.398.374.835.43 1.312h-2.34Zm7.34 6.44h-3.535V5.797h3.53c.975 0 1.814.191 2.517.574.707.38 1.252.928 1.635 1.644.383.713.574 1.566.574 2.559 0 .996-.191 1.852-.574 2.568a3.926 3.926 0 0 1-1.63 1.649c-.707.38-1.546.57-2.517.57Zm-1.224-1.97h1.135c.536 0 .989-.09 1.36-.271.373-.184.654-.481.844-.892.193-.414.29-.965.29-1.653 0-.688-.097-1.236-.29-1.644-.193-.41-.477-.707-.854-.887-.374-.184-.834-.276-1.382-.276H50.2v5.623Zm7.294 1.97V5.797h3.951c.716 0 1.334.14 1.854.42a2.95 2.95 0 0 1 1.21 1.163c.283.495.424 1.07.424 1.728 0 .66-.144 1.237-.434 1.732a2.912 2.912 0 0 1-1.228 1.144c-.532.27-1.164.406-1.896.406h-2.438v-1.82h2.008c.35 0 .64-.062.874-.183a1.25 1.25 0 0 0 .537-.509 1.58 1.58 0 0 0 .182-.77c0-.296-.06-.552-.182-.766a1.223 1.223 0 0 0-.537-.505c-.237-.118-.528-.177-.874-.177h-1.139v7.7h-2.312Zm8.579 0V5.797h3.95c.716 0 1.334.129 1.854.387.523.256.926.623 1.21 1.102.283.477.424 1.042.424 1.695 0 .664-.144 1.227-.434 1.69-.29.462-.7.813-1.233 1.056-.532.24-1.162.36-1.89.36h-2.5v-1.821h2.07c.348 0 .64-.046.873-.136a1.1 1.1 0 0 0 .537-.42c.121-.19.182-.433.182-.729 0-.295-.06-.54-.182-.733a1.096 1.096 0 0 0-.537-.439c-.237-.1-.528-.15-.873-.15h-1.14v7.701h-2.311Zm5.384-4.37 2.381 4.37h-2.521l-2.335-4.37h2.475Zm36.326 9.3v.8h-2.798v-.8h2.798Zm-2.048-1.227h.997v4.846c0 .194.029.34.087.437a.451.451 0 0 0 .224.197.9.9 0 0 0 .303.05c.08 0 .15-.006.21-.017l.14-.027.181.824a1.952 1.952 0 0 1-.648.107 1.75 1.75 0 0 1-.733-.14 1.258 1.258 0 0 1-.551-.454c-.14-.204-.21-.461-.21-.77v-5.053Zm-4.96 3.308v3.042h-.997V20.29h.957v.834h.064c.118-.271.302-.49.553-.654.254-.164.573-.247.958-.247.349 0 .654.074.917.22.262.145.466.36.61.648.145.286.217.641.217 1.064v3.258h-.997v-3.138c0-.372-.097-.662-.29-.87-.194-.212-.46-.318-.798-.318-.231 0-.437.05-.617.15-.178.1-.319.247-.423.44a1.445 1.445 0 0 0-.154.694Zm-4.854 3.156c-.324 0-.618-.06-.88-.18-.263-.123-.47-.3-.624-.53-.151-.232-.227-.515-.227-.851 0-.29.056-.527.167-.714.111-.187.261-.335.45-.444.19-.109.4-.19.634-.247.234-.055.472-.097.714-.126l.747-.087c.191-.024.33-.063.417-.117.087-.053.13-.14.13-.26v-.023c0-.291-.082-.517-.247-.677-.162-.16-.404-.24-.727-.24-.336 0-.6.074-.794.223-.191.147-.323.31-.397.49l-.937-.213c.111-.311.273-.563.487-.754.216-.193.464-.334.744-.42.28-.09.575-.134.884-.134.204 0 .421.025.65.074.231.046.447.133.647.26.203.127.368.308.497.544.13.233.194.537.194.91v3.402h-.974v-.7h-.04a1.42 1.42 0 0 1-.29.38 1.542 1.542 0 0 1-.498.31 1.927 1.927 0 0 1-.727.124Zm.217-.8c.276 0 .512-.055.707-.164.198-.11.348-.252.45-.427.105-.178.157-.368.157-.57v-.661a.518.518 0 0 1-.206.1 3.21 3.21 0 0 1-.344.077c-.129.02-.255.039-.377.056l-.307.04a2.47 2.47 0 0 0-.53.124.911.911 0 0 0-.38.25.625.625 0 0 0-.14.427c0 .247.09.434.273.56.182.125.415.187.697.187Zm-4.047.686V20.29h.998v5.123h-.998Zm.504-5.913a.634.634 0 0 1-.447-.174.564.564 0 0 1-.183-.42c0-.165.06-.305.183-.42a.628.628 0 0 1 .447-.177.62.62 0 0 1 .444.176.553.553 0 0 1 .187.42.56.56 0 0 1-.187.421.622.622 0 0 1-.444.174Zm-1.845-.918v6.831h-.998v-6.83h.998Zm-6.795 8.753V20.29h.974v.83h.084a2.78 2.78 0 0 1 .25-.37c.109-.14.26-.262.454-.367.193-.106.449-.16.767-.16a2 2 0 0 1 1.107.314c.325.209.58.51.764.904.187.393.28.867.28 1.42 0 .554-.092 1.03-.277 1.425a2.16 2.16 0 0 1-.76.91c-.323.212-.69.317-1.104.317-.312 0-.566-.052-.764-.156a1.445 1.445 0 0 1-.46-.367 2.77 2.77 0 0 1-.257-.374h-.06v2.719h-.998Zm.978-4.483c0 .36.052.676.156.947.105.271.256.484.454.637.198.151.44.227.727.227.298 0 .547-.08.747-.237.2-.16.352-.377.454-.65a2.57 2.57 0 0 0 .157-.924c0-.338-.051-.642-.154-.91-.1-.27-.251-.482-.453-.638-.2-.156-.45-.233-.75-.233-.29 0-.534.074-.735.223a1.372 1.372 0 0 0-.45.624 2.602 2.602 0 0 0-.153.934Zm-9.279 2.561V20.29h.957v.834h.064c.107-.282.281-.503.523-.66.243-.16.533-.24.871-.24.343 0 .63.08.86.24.234.16.406.38.518.66h.053c.122-.274.317-.491.584-.654.267-.164.585-.247.954-.247.464 0 .843.146 1.137.437.296.292.444.73.444 1.318v3.435h-.998v-3.342c0-.347-.094-.598-.283-.754a1.031 1.031 0 0 0-.677-.233c-.325 0-.577.1-.757.3-.18.198-.27.453-.27.764v3.265h-.995v-3.405c0-.278-.086-.502-.26-.67-.173-.17-.399-.254-.677-.254a.97.97 0 0 0-.523.15 1.102 1.102 0 0 0-.384.41c-.096.176-.144.38-.144.61v3.16h-.997Zm-3.501.104c-.48 0-.9-.11-1.258-.33a2.226 2.226 0 0 1-.834-.924c-.198-.396-.296-.859-.296-1.388 0-.531.099-.996.296-1.394a2.23 2.23 0 0 1 .834-.928c.358-.22.777-.33 1.258-.33.48 0 .9.11 1.257.33.358.22.636.53.834.928.198.398.297.863.297 1.394 0 .53-.099.992-.297 1.388a2.226 2.226 0 0 1-.834.923c-.358.22-.777.33-1.257.33Zm.003-.837c.311 0 .57-.083.774-.247.204-.165.356-.384.454-.657.1-.274.15-.575.15-.904 0-.327-.05-.627-.15-.9a1.467 1.467 0 0 0-.454-.665c-.205-.166-.463-.25-.774-.25-.313 0-.574.084-.78.25a1.49 1.49 0 0 0-.457.664 2.658 2.658 0 0 0-.147.9c0 .33.049.631.147.905.1.273.252.492.457.657.206.164.467.247.78.247Zm-5.332.837c-.496 0-.923-.113-1.281-.337a2.23 2.23 0 0 1-.82-.937c-.192-.398-.288-.854-.288-1.368 0-.52.098-.98.294-1.378.196-.4.471-.712.827-.937.356-.224.775-.337 1.257-.337a2.4 2.4 0 0 1 1.041.217c.305.142.55.343.737.6.19.259.302.56.337.904h-.97a1.164 1.164 0 0 0-.367-.62c-.19-.173-.443-.26-.76-.26-.279 0-.522.073-.731.22a1.414 1.414 0 0 0-.484.62 2.369 2.369 0 0 0-.173.948c0 .373.056.696.17.967.113.271.273.481.48.63.21.15.455.224.737.224.19 0 .36-.035.514-.103a1.05 1.05 0 0 0 .39-.304c.107-.131.181-.29.224-.474h.97a1.886 1.886 0 0 1-.323.887c-.18.26-.422.465-.724.614-.3.15-.653.224-1.057.224Zm-8.87-1.384v-.36c0-.259.053-.494.16-.708a1.28 1.28 0 0 1 .473-.517c.21-.131.462-.197.758-.197.302 0 .556.065.76.194.205.129.36.301.464.517.106.215.16.452.16.71v.36c0 .258-.054.495-.16.711a1.284 1.284 0 0 1-.47.517c-.205.129-.456.193-.754.193-.3 0-.554-.064-.76-.193a1.283 1.283 0 0 1-.471-.517 1.58 1.58 0 0 1-.16-.71Zm.777-.36v.36c0 .19.045.364.137.52.09.155.25.233.477.233.224 0 .38-.078.47-.233a1.03 1.03 0 0 0 .133-.52v-.36a1.05 1.05 0 0 0-.13-.521c-.084-.156-.242-.233-.473-.233-.223 0-.38.077-.474.233a.992.992 0 0 0-.14.52Zm-4.213-3.55v-.36c0-.258.053-.495.16-.71.11-.216.267-.388.474-.517.209-.13.461-.194.757-.194.302 0 .556.065.76.194.205.129.36.3.464.517.105.215.157.452.157.71v.36c0 .258-.053.495-.16.71a1.26 1.26 0 0 1-.467.518c-.205.129-.456.193-.754.193-.302 0-.557-.064-.764-.193a1.29 1.29 0 0 1-.467-.517 1.58 1.58 0 0 1-.16-.71Zm.78-.36v.36c0 .192.045.365.134.52.091.156.25.234.477.234.222 0 .378-.078.467-.233.091-.156.137-.33.137-.52v-.36a1.05 1.05 0 0 0-.13-.521c-.087-.156-.245-.234-.474-.234-.222 0-.38.078-.474.234a1.01 1.01 0 0 0-.136.52Zm-.463 5.55 4.696-6.83h.797l-4.696 6.83h-.797Zm-4.132.114c-.527-.003-.977-.142-1.35-.417-.374-.276-.66-.677-.858-1.204-.198-.527-.297-1.162-.297-1.905 0-.74.1-1.373.297-1.898.2-.525.487-.925.86-1.2.376-.276.826-.414 1.348-.414.523 0 .97.139 1.344.417.374.276.66.676.858 1.2.2.523.3 1.155.3 1.895 0 .745-.1 1.381-.297 1.908-.198.525-.484.926-.857 1.204-.374.276-.823.414-1.348.414Zm0-.89c.463 0 .824-.227 1.084-.678.263-.451.394-1.104.394-1.958 0-.567-.06-1.046-.18-1.438-.118-.393-.288-.691-.51-.893a1.117 1.117 0 0 0-.788-.307c-.46 0-.822.227-1.084.68-.262.454-.395 1.107-.397 1.958 0 .57.06 1.05.177 1.444.12.392.29.689.51.891.22.2.485.3.794.3Zm-6.062.89c-.528-.003-.978-.142-1.352-.417-.373-.276-.66-.677-.857-1.204-.198-.527-.297-1.162-.297-1.905 0-.74.1-1.373.297-1.898.2-.525.487-.925.86-1.2.376-.276.826-.414 1.348-.414.523 0 .97.139 1.344.417.374.276.66.676.858 1.2.2.523.3 1.155.3 1.895 0 .745-.1 1.381-.297 1.908-.198.525-.484.926-.857 1.204-.374.276-.823.414-1.348.414Zm0-.89c.462 0 .823-.227 1.083-.678.263-.451.394-1.104.394-1.958 0-.567-.06-1.046-.18-1.438-.118-.393-.288-.691-.51-.893a1.117 1.117 0 0 0-.788-.307c-.46 0-.822.227-1.084.68-.262.454-.395 1.107-.397 1.958 0 .57.06 1.05.177 1.444.12.392.29.689.51.891.22.2.485.3.794.3Zm-4.227-6.055v6.831H39.38v-5.797h-.04l-1.634 1.068v-.988l1.704-1.114h1.004Z" fill="#686F7D"/></svg>