<svg width="76" height="19" fill="none" xmlns="http://www.w3.org/2000/svg"><path d="M41.599 11.086v1.197h6.534l-.45-1.974h-2.695c.15-.182.317-.359.505-.53.29-.26.612-.54.967-.838.495-.425.867-.833 1.123-1.225.26-.414.389-.894.389-1.434 0-.95-.278-1.71-.845-2.257-.572-.546-1.389-.805-2.434-.805a8.61 8.61 0 0 0-1.444.121 7.992 7.992 0 0 0-1.256.315l-.105.038v2.202l.216-.083a7.93 7.93 0 0 1 1-.304c.35-.088.7-.127 1.056-.127.461 0 .778.089.978.243.189.15.294.37.294.7 0 .266-.05.486-.144.663-.089.182-.244.38-.478.596-.244.22-.572.524-.983.899-.45.402-.873.805-1.262 1.197a5.353 5.353 0 0 0-.96 1.379l-.006.027Z" fill="#fff"/><path fill-rule="evenodd" clip-rule="evenodd" d="M29.041 13.95c0 1.373-.422 2.52-1.272 3.326-.844.8-2 1.224-3.383 1.224a4.362 4.362 0 0 1-1.578-.303l-.117-.039.039-.116c.116-.264.305-.65.539-1.031.194-.342.422-.728.616-1.109l.04-.039h.077c.195 0 .461 0 .733-.038.267-.039.54-.116.734-.265.383-.232.694-.69.694-1.644V5.123c0-1.412.462-2.56 1.306-3.36.845-.8 2-1.224 3.384-1.224.305 0 .578.039.883.077l.306.039V3.33l-.156-.077c-.694-.193-1.539-.193-2.117.193-.383.232-.733.728-.733 1.644v.265h2.695v2.482h-2.69v6.112ZM10.723 9.475c0-3.63 2.923-6.266 6.5-6.266 3.579 0 6.54 2.636 6.54 6.266 0 3.668-2.922 6.305-6.5 6.305-3.617.039-6.54-2.636-6.54-6.305Zm6.54-3.663c-1.962 0-3.579 1.528-3.579 3.669 0 2.178 1.617 3.707 3.579 3.707 1.922 0 3.578-1.529 3.578-3.707-.034-2.14-1.65-3.669-3.578-3.669ZM69.713.5h2.922v2.676h2.773v2.482h-2.773v5.312c0 1.032.345 1.567.773 1.832.422.303.922.38 1.306.38.155 0 .233 0 .46-.038l.423-.078v2.714s-.383.078-1.117.116c-.772 0-1.96-.116-2.961-.766-1.04-.651-1.812-1.87-1.812-3.862V3.363L69.713.5ZM.833 13.91l1.5-1.986.422.381c.617.574 1.578 1.07 2.5 1.07.5 0 .884-.154 1.117-.342a.954.954 0 0 0 .345-.767c0-.38-.195-.69-.656-.993-.383-.264-.883-.457-1.422-.728-.117-.038-.234-.116-.384-.154-.694-.304-1.422-.69-2.039-1.225-.616-.574-1-1.296-1-2.328 0-1.109.461-2.024 1.273-2.675.772-.651 1.81-.955 2.961-.955 1.233 0 2.578.381 3.5 1.297l.267.265-1.233 2.179-.462-.42a3.361 3.361 0 0 0-2.155-.838c-.5 0-.884.116-1.156.342-.233.193-.383.458-.383.767 0 .38.194.65.616.915.384.232.845.42 1.345.651.155.078.305.116.461.193.695.304 1.461.651 2.04 1.225.616.574 1 1.335 1 2.405 0 .993-.384 1.947-1.117 2.637-.734.69-1.773 1.07-3.04 1.07-1.5 0-3-.574-4.078-1.644l-.222-.342Zm56.723-8.94c1.156-1.225 2.695-1.832 4.656-1.832 1.578 0 2.962.535 4.04 1.566 1.117 1.07 1.655 2.406 1.655 4.01 0 .575-.039.955-.117 1.297 0 .077 0 .116-.038.193v.077h-9.273v.116c.116.993.538 1.721 1.305 2.18.772.457 1.733.612 2.773.612.616 0 1.272-.116 1.733-.265.233-.077.423-.155.578-.193.078-.039.117-.039.156-.078.039 0 .039 0 .039-.038h.116l2.117 1.224-.267.304c-1.117 1.031-2.883 1.644-4.734 1.644-1.922 0-3.5-.613-4.733-1.76-1.195-1.147-1.773-2.675-1.773-4.584.034-1.721.572-3.25 1.767-4.474Zm1.078 3.171h6.54a2.1 2.1 0 0 0-.806-1.682c-.54-.458-1.345-.69-2.311-.728-1.806.005-3.079.92-3.423 2.41ZM34.12.5h2.923v2.676h2.772v2.482h-2.772v5.312c0 1.032.344 1.567.772 1.832.422.303.922.38 1.306.38.155 0 .233 0 .461-.038l.422-.078v2.714s-.383.078-1.117.116c-.772 0-1.96-.116-2.961-.766-1.04-.651-1.811-1.87-1.811-3.862V.5h.005Z" fill="#fff"/></svg>